PathFileType	4	(X/Y/Z)	C:/Users/beibeiliu/ov580/test_trc/User3\sequence.8_training_dense_right.trc
DataRate	CameraRate	NumFrames	NumMarkers	Units	OrigDataRate	OrigDataStartFrame	OrigNumFrames
120	120	12	19	mm	120	135	161
Frame#	Time	ThumbCMC			ThumbMCP			ThumbIP			ThumbTip			IndexMCP			IndexPIP			IndexTip			MiddleMCP			MiddlePIP			MiddleTip			RingMCP			RingPIP			RingTip			PinkyMCP			PinkyPIP			PinkyTip			BackHand1			BackHand2			BackHand3	
		X0	Y0	Z0	X1	Y1	Z1	X2	Y2	Z2	X3	Y3	Z3	X4	Y4	Z4	X5	Y5	Z5	X6	Y6	Z6	X7	Y7	Z7	X8	Y8	Z8	X9	Y9	Z9	X10	Y10	Z10	X11	Y11	Z11	X12	Y12	Z12	X13	Y13	Z13	X14	Y14	Z14	X15	Y15	Z15	X16	Y16	Z16	X17	Y17	Z17	X18	Y18	Z18	
134	1.11667	77.3614	1.51984	-0.0473073	45.4613	-0.708184	-2.98874	12.9156	1.5283	-10.8552	-8.91932	-7.51168	-15.9513	44.4925	-32.9719	-61.9732	17.4613	-33.6591	-73.8076	-12.1774	-45.4291	-74.7597	50.5351	-60.7893	-62.1168	23.754	-76.4589	-68.4628	-9.11592	-92.2813	-57.17	51.8959	-76.6038	-38.22	27.626	-86.3822	-24.4227	14.6512	-74.3264	7.48731	66.8764	-88.1518	-22.5802	39.4348	-89.1746	-7.56837	33.2637	-73.5773	11.6646	104.989	-49.463	-28.0398	124.913	-39.0225	-5.88558	102.736	-17.9662	-23.4053	
135	1.125	86.9022	7.17402	-4.83035	57.1195	17.6373	-9.54958	28.543	25.0913	-20.1463	6.88458	21.3715	-25.6099	50.1116	-18.2277	-63.361	23.9132	-19.3384	-78.4014	-4.73108	-18.96	-81.6794	43.922	-53.2593	-61.3771	15.8674	-57.4876	-69.5038	-16.6778	-58.1797	-63.7237	36.4004	-63.0347	-35.975	10.2859	-60.2453	-21.4065	2.92833	-48.4753	3.81072	47.1793	-75.9528	-18.669	21.0374	-69.021	-4.45228	19.6277	-49.7024	14.4807	94.0759	-56.7195	-24.6554	120.423	-49.6033	-3.26403	102.493	-23.1748	-24.3157	
136	1.13333	98.0226	3.54531	-2.69587	70.4606	16.508	-13.9764	48.6357	30.9295	-26.3379	27.5713	37.8359	-36.2041	56.9648	-20.4827	-63.9719	37.1311	-6.73097	-83.4334	6.40587	-0.223296	-89.448	42.1288	-46.6913	-59.8559	17.1904	-41.7392	-72.5319	-17.1376	-34.1541	-69.1451	32.0434	-54.2074	-33.8623	5.96699	-42.1983	-25.2994	-1.74962	-21.6392	0.600106	33.8621	-65.6295	-17.9402	11.0194	-50.1434	-6.26004	14.498	-27.336	9.14569	85.7055	-62.5116	-20.0548	108.187	-62.4995	6.64251	104.842	-33.7576	-21.0646	
137	1.14167	107.398	-7.14607	-2.59378	86.5151	12.0047	-19.433	71.938	31.2146	-38.1939	54.4105	39.7466	-45.8046	66.51	-25.2019	-69.2636	52.6673	-11.1511	-88.9822	31.6918	3.96282	-100.728	44.987	-46.4852	-60.7766	19.2119	-34.8485	-79.5038	-7.26856	-16.9739	-80.6898	28.02	-46.9917	-37.9544	6.52419	-23.9436	-32.7878	6.73694	-0.693619	-10.2888	25.2841	-55.2543	-20.2494	8.64572	-35.5739	-13.9322	18.3097	-14.5824	6.93201	77.0338	-71.5806	-11.5414	99.1491	-70.7235	9.22076	105.327	-44.6466	-17.0688	
138	1.15	116.971	-25.3789	-2.80171	106.437	-3.88821	-22.588	98.0929	15.2222	-45.2587	85.915	29.5348	-60.5307	80.2415	-43.4917	-70.8199	73.0352	-29.0199	-96.948	57.1231	-13.1795	-110.809	53.7475	-57.3266	-65.3628	33.2475	-42.3918	-86.2486	11.6472	-23.6314	-92.6161	37.6688	-50.6732	-41.5417	16.9781	-24.1272	-42.635	21.815	3.05262	-26.2157	28.0777	-55.9452	-25.4476	16.4604	-31.3671	-25.2933	28.2967	-9.51713	-6.56085	74.7357	-79.6572	-11.5821	88.2402	-83.9666	16.7986	106.754	-63.1885	-8.29982	
139	1.15833	123.458	-45.0789	0.95606	117.46	-26.756	-25.5142	118.094	-8.62093	-50.2066	107.832	1.57991	-66.5142	101.083	-66.8762	-69.9212	96.1088	-57.116	-99.1381	86.3371	-42.619	-116.512	69.5619	-78.3978	-66.0976	51.9819	-66.2121	-91.9546	33.4529	-44.8825	-105.182	52.007	-64.7163	-47.5712	34.7914	-40.5276	-55.1129	37.3318	-8.72992	-39.3304	35.5668	-67.7324	-29.7327	28.45	-44.7997	-36.8974	41.1468	-19.7038	-20.7198	79.3769	-92.1515	-7.53553	89.7056	-95.0196	23.1268	111.244	-81.6555	-2.8778	
140	1.16667	134.527	-59.0878	0.751228	135.833	-41.0126	-25.3414	134.104	-29.5305	-49.6307	126.997	-22.712	-72.8976	120.941	-90.6486	-62.5574	117.943	-88.1925	-96.178	114.278	-74.1424	-119.43	91.618	-103.193	-61.0195	78.3965	-97.7148	-93.2345	58.5489	-79.9516	-112.973	65.0691	-88.9242	-50.0953	54.5786	-64.2592	-64.6154	50.9212	-31.8326	-51.7225	54.1748	-90.1643	-30.5779	44.5606	-68.6919	-45.2628	56.8818	-38.7703	-32.7455	88.9801	-107.023	1.59686	98.1045	-103.649	27.0416	126.572	-93.9903	2.26383	
141	1.175	149.208	-60.6496	5.03378	144.705	-50.897	-27.2186	148.065	-40.8119	-54.796	139.33	-37.1848	-74.6191	147.617	-105.107	-60.5117	146.28	-107.371	-88.362	140.025	-97.9345	-114.481	115.949	-122.742	-56.162	110.847	-122.273	-89.3605	92.3047	-109.968	-114.473	92.7969	-108.041	-53.0383	74.5405	-88.5849	-67.9634	69.1818	-60.4417	-65.1434	73.5246	-111.696	-31.8291	64.4113	-89.0042	-49.7228	66.8201	-63.3297	-40.0526	113.777	-119.043	1.52851	113.692	-112.484	34.3366	139.769	-101.932	8.89945	
142	1.18333	156.368	-57.3598	1.25012	154.027	-45.0651	-26.0172	153.711	-39.2397	-55.6633	145.949	-37.5114	-74.9405	168.128	-104.669	-55.1857	173.316	-103.815	-83.9045	167.038	-97.956	-111.181	145.387	-127.778	-55.3141	138.934	-132.105	-83.4598	119.452	-121.106	-115.95	115.597	-120.145	-53.262	101.461	-107.318	-70.7505	82.7111	-75.5137	-68.2836	98.9614	-124.43	-35.0654	87.3754	-108.668	-53.0635	78.9071	-78.3728	-45.4919	134.687	-119.02	7.3759	131.43	-115.339	32.9329	160.61	-96.4664	10.9674	
143	1.19167	155.998	-47.8995	1.88443	150.556	-35.3908	-24.68	149.762	-27.7182	-56.3534	144.841	-29.6485	-79.7932	185.459	-83.9558	-51.9142	191.851	-82.6977	-85.7724	181.92	-82.3378	-111.238	172.518	-113.688	-52.703	169.558	-120.401	-84.0157	149.639	-114.284	-116.364	144.236	-117.149	-48.8643	118.729	-109.755	-72.5789	98.7987	-88.3099	-71.9514	126.833	-127.287	-33.9799	109.035	-116.752	-53.2787	98.2627	-87.8175	-51.1107	160.307	-112.549	3.36192	150.215	-102.192	36.3216	170.251	-80.7223	11.0088	
144	1.2	148.034	-33.4357	6.70727	140.232	-23.5967	-25.6072	137.771	-18.6974	-53.9768	132.656	-18.0074	-77.2668	194.704	-54.4663	-54.6613	199.57	-53.1865	-85.6535	190.64	-47.6016	-109.878	191.357	-83.1145	-54.0868	191.313	-90.5971	-87.9243	173.914	-91.8802	-116.875	165.77	-101.382	-54.6787	145.463	-103.23	-73.4552	111.768	-91.3944	-73.888	153.032	-118.851	-39.35	131.265	-109.454	-58.7877	113.962	-92.9765	-53.1352	176.202	-93.7329	0.673531	165.81	-87.9799	35.0253	178.791	-60.3484	10.7784	
145	1.20833	138.336	-24.4906	4.0828	129.376	-18.1268	-28.3402	121.684	-10.7425	-54.9844	118.926	-12.3463	-78.6615	189.978	-27.5113	-55.5777	194.219	-18.6209	-82.357	184.433	-17.0464	-110.882	197.78	-54.3113	-55.3054	200.783	-56.7669	-88.5365	184.809	-65.4265	-118.958	178.799	-77.8807	-57.1569	157.154	-85.7018	-79.3011	124.895	-88.1856	-76.4191	172.621	-97.378	-43.0776	150.964	-98.8648	-61.1706	122.952	-91.8277	-51.6449	185.334	-73.8861	2.21296	174.206	-71.5465	30.565	175.555	-41.4144	10.9315	
